# WaveFront *.obj file (generated by CINEMA 4D)

v -278.6490478515625 -370.62570190429688 -286.5836181640625
v 239.34146118164062 -309.12149047851562 -50.37441635131836
v 242.42597961425781 -174.63165283203125 275.21139526367188
v -178.92851257324219 -572.1746826171875 109.71424865722656
v 17.52107620239258 -510.2470703125 -181.23867797851562
v 92.87948608398438 439.49227905273438 107.56967163085938
v -338.06057739257812 -214.075927734375 114.54209136962891
v 67.64493560791016 418.6641845703125 -122.20024108886719
v -133.31600952148438 -396.82235717773438 -246.20550537109375
v 293.11917114257812 -494.62619018554688 133.88169860839844
v 213.45559692382812 259.81622314453125 -179.88017272949219
v -107.15834808349609 -98.18082427978516 332.21127319335938
v -160.82449340820312 -546.56121826171875 -84.51113128662109
v -170.16848754882812 225.87196350097656 160.39942932128906
v -180.76602172851562 165.43754577636719 -211.17257690429688
v -39.54007720947266 452.08700561523438 101.42626190185547
v -245.98866271972656 -293.49411010742188 -25.54145050048828
v -253.62318420410156 -413.72320556640625 235.85960388183594
v -97.03225708007812 425.5635986328125 -94.64014434814453
v -223.16108703613281 121.13346099853516 -84.83388519287109
v -237.22767639160156 -54.1727180480957 249.78805541992188
v 276.53713989257812 -446.04544067382812 -41.47935104370117
v 21.53801918029785 191.20587158203125 186.03019714355469
v -265.36770629882812 -423.45767211914062 -79.07971954345703
v 0.5487602353096 -482.04022216796875 -302.71221923828125
v 210.68502807617188 97.31413269042969 -10.84876346588135
v -105.22227478027344 -131.13491821289062 -341.40704345703125
v 34.71152877807617 -144.44158935546875 277.39321899414062
v 144.55085754394531 -375.38589477539062 282.03317260742188
v -9.57638072967529 194.56390380859375 -248.23248291015625
v 207.26362609863281 -411.42807006835938 -253.84898376464844
v -46.17305755615234 -440.50253295898438 -84.80156707763672
v -169.60697937011719 390.03164672851562 37.55281829833984
v 359.07217407226562 -214.77177429199219 38.79124069213867
v 245.72802734375 135.43878173828125 97.52465057373047
v -243.52210998535156 -45.38001251220703 109.98912048339844
v 17.8910961151123 -503.03424072265625 118.62656402587891
v -59.29985809326172 -440.36312866210938 262.60540771484375
v 269.62899780273438 -228.39411926269531 -177.40040588378906
v 242.30326843261719 -170.35330200195312 159.30078125
v 106.60469055175781 -456.39828491210938 -357.5128173828125
v 262.06793212890625 -85.30244445800781 -267.97103881835938
v 51.70916748046875 -182.4666748046875 -265.47140502929688
v -313.06021118164062 -116.35784149169922 -7.12613439559937
v 183.31813049316406 295.98321533203125 186.46000671386719
v 70.76151275634766 133.68077087402344 -199.22561645507812
v -306.46182250976562 -268.7794189453125 -150.52041625976562
v 120.80088806152344 420.9315185546875 -23.34656143188477
v 135.64376831054688 -430.6812744140625 4.97154903411865
v -329.93463134765625 -490.28155517578125 92.13356781005859
v -50.46928024291992 101.01634216308594 231.26541137695312
v 220.63984680175781 23.19912147521973 267.37899780273438
v -78.79360198974609 -413.23330688476562 48.94718170166016
v 108.52434539794922 -568.70849609375 -65.34710693359375
# 54 vertices

vn -0.01514181401581 0.30523955821991 0.9521552324295
vn 0 0 0
vn -0.2309598326683 0.35289111733437 0.90671133995056
vn 0.31298378109932 -0.34952953457832 -0.88310265541077
vn -0.56185513734818 0.49686685204506 0.66139405965805
vn -0.48647221922874 0.18911516666412 -0.85298311710358
vn -0.09835696965456 0.25865033268929 -0.96095049381256
vn 0.74131798744202 -0.15287466347218 -0.65351122617722
vn -0.18488949537277 -0.95144689083099 -0.24609889090061
vn -0.18380624055862 0.34599351882935 0.92005640268326
vn -0.88236647844315 0.07243882119656 -0.46495372056961
vn -0.94253861904144 0.24044162034988 -0.23196721076965
vn 0.94553083181381 -0.27952417731285 -0.16684614121914
vn 0.01441424619406 0.02693739533424 0.99953317642212
vn -0.14471912384033 0.28896901011467 -0.94633674621582
vn -0.43254661560059 0.90159845352173 0.00486866990104
vn 0.15923509001732 0.33808454871178 0.92754679918289
vn 0.2227681428194 -0.84449994564056 0.48702591657639
vn -0.7102016210556 0.37839233875275 -0.59366059303284
vn 0.03486431762576 0.99852377176285 -0.04164976999164
vn 0.42867806553841 0.30835121870041 0.84920823574066
vn -0.22852486371994 -0.69460725784302 -0.68212687969208
vn 0.61066538095474 -0.78011226654053 0.13606126606464
vn -0.23699490725994 0.17763818800449 -0.95513248443604
vn -0.84996962547302 0.48206517100334 0.21251998841763
vn 0.55874687433243 0.07226754724979 -0.82618361711502
vn -0.14057447016239 -0.03192370757461 0.98955529928207
vn -0.9663497209549 0.25031435489655 0.05925342440605
vn -0.91243773698807 0.21554143726826 -0.34784954786301
vn -0.87007421255112 0.41591539978981 0.26454734802246
vn -0.40718924999237 0.36477828025818 0.83733731508255
vn -0.88541162014008 0.11321335285902 0.45080927014351
vn -0.86941426992416 0.48911309242249 0.06990824639797
vn -0.83002579212189 0.02079739235342 -0.5573371052742
vn -0.49251866340637 -0.09657014906406 -0.86492747068405
vn -0.93483251333237 0.24519830942154 -0.25683844089508
vn 0.71649968624115 -0.19537244737148 0.66966992616653
vn -0.26210513710976 0.46355214715004 -0.8464161157608
vn -0.68117952346802 -0.55754321813583 -0.47448927164078
vn 0.25477421283722 0.26327314972878 0.93047159910202
vn -0.5588418841362 -0.82901757955551 0.02063041739166
vn -0.10760404914618 -0.96508127450943 -0.23882934451103
vn -0.90259426832199 -0.04191110283136 0.42844730615616
vn -0.17012628912926 0.25878083705902 0.95083624124527
vn 0.99397349357605 0.109579898417 0.00299238832667
vn -0.14448672533035 -0.98302102088928 -0.11310704797506
vn -0.12007064372301 0.51775503158569 -0.84706127643585
vn 0.48609882593155 -0.52356588840485 0.69970470666885
vn -0.291388630867 0.16685777902603 -0.94194006919861
vn -0.04334843531251 0.46139693260193 0.88613420724869
vn 0.92281234264374 -0.17004476487637 -0.34569075703621
vn 0.88611716032028 0.26539832353592 0.37994757294655
vn 0.64804220199585 -0.69972229003906 0.300715893507
vn 0.54582422971725 0.09418633580208 -0.83258926868439
vn -0.11946760863066 -0.98623335361481 -0.11432962119579
vn 0.72790533304214 0.06052900478244 0.68300080299377
vn 0.98798811435699 0.15445993840694 0.00465527875349
vn 0.73527318239212 0.12629052996635 0.66590094566345
vn 0.62055885791779 0.21091866493225 -0.7552615404129
vn 0.75115692615509 -0.41082522273064 0.51670676469803
vn 0.70753365755081 -0.66056430339813 -0.25109955668449
vn -0.08795539289713 -0.02182387746871 0.99588531255722
vn -0.8664139509201 -0.06564847379923 0.49499201774597
vn -0.38219794631004 -0.00550459744409 0.92406409978867
vn 0.2019914239645 -0.8014577627182 -0.56290751695633
vn -0.07756775617599 0.23630186915398 -0.96857869625092
vn 0.19194231927395 -0.34897208213806 -0.91726583242416
vn 0.85828995704651 0.34812048077583 -0.37702840566635
vn -0.43627396225929 -0.67728614807129 0.59240901470184
vn 0.470673173666 0.15368834137917 -0.86881911754608
vn -0.91150736808777 0.37199711799622 -0.17542071640491
vn 0.10089107602835 0.98155891895294 -0.16236710548401
vn -0.10860832035542 0.21013922989368 -0.97162014245987
vn 0.04850443080068 0.26410606503487 0.96327322721481
vn -0.94117271900177 0.20452506840229 0.2690044939518
vn 0.85214340686798 0.34219253063202 -0.39592403173447
vn -0.67495650053024 -0.73772072792053 -0.01420855801553
vn 0.98692095279694 0.02122983708978 0.15980093181133
vn 0.85508674383163 -0.01186279859394 0.5183492898941
vn -0.8671315908432 -0.28593567013741 -0.40782782435417
vn 0.80953270196915 0.42048925161362 -0.40968957543373
vn 0.10958676785231 -0.96473449468613 -0.23932835459709
vn 0.06261323392391 0.98992538452148 -0.12699355185032
vn 0.98636257648468 0.1220271512866 0.11044547706842
vn -0.63263815641403 -0.51160329580307 -0.58140432834625
vn 0.9267246723175 -0.17742504179478 -0.3312124311924
vn 0.44725534319878 -0.89317989349365 -0.04682209342718
vn 0.96349841356277 0.26770311594009 0.00241255015135
vn 0.92470502853394 -0.30065080523491 0.2335160523653
vn -0.7261815071106 -0.6872820854187 0.01742766797543
vn -0.56649488210678 -0.81662654876709 -0.11047458648682
vn 0.87440848350525 0.44588741660118 -0.19129629433155
vn 0.62286591529846 0.69918566942215 -0.3509663939476
vn 0.93732863664627 0.21059286594391 0.27760696411133
vn -0.96600759029388 -0.25848308205605 -0.00398205593228
vn -0.80959177017212 0.0141847897321 0.58682191371918
vn 0.94881129264832 0.26986798644066 0.16409862041473
vn -0.89641970396042 0.37880802154541 0.23007869720459
vn -0.49609658122063 -0.84827595949173 0.18524585664272
vn 0.57361763715744 -0.25318846106529 0.77901118993759
vn 0.31451365351677 -0.14678350090981 0.93783569335938
vn -0.66703057289124 -0.74427020549774 -0.03364718332887
vn -0.06403282284737 -0.3209300339222 -0.94493579864502
vn 0.32959368824959 -0.76147449016571 0.55814385414124
vn -0.5762146115303 -0.23954257369041 0.78140646219254
# 105 normals

vt 0.22434484958649 0.64769470691681 0
vt 0.15082554519176 0.81741738319397 0
vt 0.27908232808113 0.78818655014038 0
vt 0.32511982321739 0.8315287232399 0
vt 0.13913036882877 0.69776982069016 0
vt 0.25259470939636 0.6453822851181 0
vt 0.54222285747528 0.38407790660858 0
vt 0.54762905836105 0.50008553266525 0
vt 0.61315405368805 0.48375248908997 0
vt 0.76775217056274 0.42816507816315 0
vt 0.32863292098045 0.63675892353058 0
vt 0.38878765702248 0.73794001340866 0
vt 0.47047519683838 0.76495391130447 0
vt 0.60616761445999 0.35239052772522 0
vt 0.63464999198914 0.3720246553421 0
vt 0.79623341560364 0.2801296710968 0
vt 0.63178110122681 0.62140989303589 0
vt 0.65902531147003 0.79484033584595 0
vt 0.7159743309021 0.67008739709854 0
vt 0.90398514270782 0.67505174875259 0
vt 0.6841766834259 0.37178993225098 0
vt 0.69256597757339 0.52651762962341 0
vt 0.87296998500824 0.48482728004456 0
vt 0.84642374515533 0.35837829113007 0
vt 0.80542379617691 0.27219092845917 0
vt 0.77533596754074 0.35150504112244 0
vt 0.98263704776764 0.25294208526611 0
vt 0.25574213266373 0.5870258808136 0
vt 0.39077243208885 0.63089275360107 0
vt 0.36503258347511 0.5220006108284 0
vt 0.48993772268295 0.82170379161835 0
vt 0.60449516773224 0.87593770027161 0
vt 0.46801114082336 0.44027733802795 0
vt 0.44475507736206 0.60626274347305 0
vt 0.50605130195618 0.6237884759903 0
vt 0.62584507465363 0.61370742321014 0
vt 0.80622726678848 0.46820962429047 0
vt 1.07682573795319 0.26204884052277 0
vt 0.17105670273304 0.38978314399719 0
vt 0.14423975348473 0.47993898391724 0
vt 0.22068157792091 0.48696291446686 0
vt 0.24774101376534 0.43241882324219 0
vt 0.29419490695 0.56499838829041 0
vt 0.26067286729813 0.36008203029633 0
vt 0.21570760011673 0.26033437252045 0
vt 0.18198990821838 0.30365920066833 0
vt 0.50627249479294 0.41220414638519 0
vt 0.58626753091812 0.64479464292526 0
vt 0.68093407154083 0.44980573654175 0
vt 0.77670419216156 0.83691757917404 0
vt 0.82852983474731 0.84034478664398 0
vt 0.27098098397255 0.499844789505 0
vt 0.31438583135605 0.44948673248291 0
vt 0.45923519134521 0.28360176086426 0
vt 0.60469835996628 0.2826122045517 0
vt 0.75654870271683 0.16166150569916 0
vt 0.05068524181843 0.27219092845917 0
vt 0.73212856054306 0.64153981208801 0
vt 0.37308183312416 0.45600998401642 0
vt 0.41256734728813 0.49270224571228 0
vt 0.50198239088058 0.44002318382263 0
vt 0.79243230819702 0.61055594682693 0
vt 0.31951001286507 0.51264894008636 0
vt 0.32908126711845 0.38643181324005 0
vt 0.39136651158333 0.29921865463257 0
vt 0.43900057673454 0.47884237766266 0
vt 0.62613815069199 0.3333660364151 0
vt 0.54462993144989 0.5904865860939 0
vt 0.37868496775627 0.46645176410675 0
vt 0.42472597956657 0.42845547199249 0
vt 0.57544326782227 0.37056183815002 0
vt 0.44966554641724 0.39140713214874 0
vt 0.37484210729599 0.37277841567993 0
vt 0.5180920958519 0.3548983335495 0
vt 0.44725304841995 0.37555813789368 0
vt 0.54793965816498 0.28481137752533 0
vt 0.35892298817635 0.34566688537598 0
vt 0.34985959529877 0.29492425918579 0
vt 0.41889697313309 0.17797458171844 0
vt 0.56381553411484 0.16297268867493 0
vt 0.97044610977173 0.26033437252045 0
vt 0.72864997386932 0.23548674583435 0
vt 0.92077988386154 0.09922218322754 0
vt 0.67377102375031 0.29609978199005 0
vt 0.15049089491367 0.56877851486206 0
vt 0.10657576471567 0.48856592178345 0
vt 0.14645847678185 0.42311215400696 0
vt 0.45989561080933 0.26139760017395 0
vt 0.56469053030014 0.13355302810669 0
vt 0.75849545001984 0.25411534309387 0
vt 0.71983087062836 0.45240986347198 0
vt 0.90909487009048 0.38663709163666 0
vt 0.76218348741531 0.41439998149872 0
vt 0.96521055698395 0.33627545833588 0
vt 1.02356684207916 0.40757131576538 0
vt 0.30072793364525 0.26430606842041 0
vt 0.09168519824743 0.35837829113007 0
vt 0.05148871243 0.46820962429047 0
vt 0.09655511379242 0.43454265594482 0
vt 0.08693046122789 0.63860154151916 0
vt 1.02250230312347 0.14785373210907 0
vt 0.45199793577194 0.28112828731537 0
vt 0.86185443401337 0.27981865406036 0
vt 0.78953337669373 0.65598887205124 0
vt 0.4309056699276 0.24520671367645 0
vt 0.15518438816071 0.87025845050812 0
vt 0.03479478508234 0.65598887205124 0
vt 0.07052583992481 0.63333421945572 0
vt 0.24115066230297 0.13214445114136 0
vt 0.15474100410938 0.54082131385803 0
vt 0.98444992303848 0.89609545469284 0
vt 1.00144803524017 0.65637177228928 0
vt 0.13968873023987 0.71172988414764 0
vt 0.90556401014328 0.81741738319397 0
vt 1.15518438816071 0.87025845050812 0
vt 0.0768256932497 0.26204884052277 0
# 116 texture coordinates

o icebergs_3
usemtl default
f 23/1/1 6/2/1 16/3/1
f 45/5/3 6/2/3 23/1/3
f 9/7/4 27/8/4 43/9/4
f 14/11/5 16/3/5 33/12/5
f 25/14/6 43/9/6 41/15/6
f 46/17/7 8/18/7 11/19/7
f 31/21/8 41/15/8 42/22/8
f 10/24/9 49/25/9 22/26/9
f 51/28/10 16/3/10 14/11/10
f 36/30/11 33/12/11 19/31/11
f 47/33/12 20/34/12 15/35/12
f 22/26/13 34/37/13 10/24/13
f 29/39/14 3/40/14 28/41/14
f 41/15/15 43/9/15 42/22/15
f 33/12/16 16/3/16 19/31/16
f 23/1/17 16/3/17 51/28/17
f 38/44/18 37/45/18 29/39/18
f 1/47/19 30/48/19 27/8/19
f 19/31/20 48/50/20 8/18/20
f 28/41/21 51/28/21 12/52/21
f 13/54/22 9/7/22 5/55/22
f 37/45/23 49/57/23 29/39/23
f 1/47/24 15/35/24 30/48/24
f 7/59/25 36/30/25 44/60/25
f 27/8/26 30/48/26 46/17/26
f 38/44/27 21/63/27 18/64/27
f 21/63/28 14/11/28 36/30/28
f 47/33/29 15/35/29 1/47/29
f 44/60/30 36/30/30 20/34/30
f 12/52/31 14/11/31 21/63/31
f 17/70/32 20/34/32 47/33/32
f 21/63/33 36/30/33 7/59/33
f 50/73/34 7/59/34 17/70/34
f 44/60/35 20/34/35 17/70/35
f 50/73/36 17/70/36 24/75/36
f 18/64/37 4/77/37 53/78/37
f 15/35/38 19/31/38 30/48/38
f 50/73/39 24/75/39 13/54/39
f 28/41/40 23/1/40 51/28/40
f 37/81/41 5/55/41 54/82/41
f 24/75/42 1/47/42 9/7/42
f 24/75/43 17/70/43 47/33/43
f 52/85/44 45/5/44 23/1/44
f 40/86/45 52/85/45 3/40/45
f 49/25/46 31/21/46 22/26/46
f 30/48/47 19/31/47 8/18/47
f 13/54/48 5/55/48 32/88/48
f 9/7/49 43/9/49 25/14/49
f 51/28/50 14/11/50 12/52/50
f 31/21/51 42/22/51 39/91/51
f 22/26/52 39/91/52 2/93/52
f 53/78/53 13/54/53 32/88/53
f 22/26/54 2/93/54 34/37/54
f 18/64/55 53/78/55 38/44/55
f 10/97/56 34/98/56 40/86/56
f 10/97/57 40/86/57 3/40/57
f 34/98/58 35/100/58 40/86/58
f 30/48/59 8/18/59 46/17/59
f 37/81/60 54/82/60 49/25/60
f 2/93/61 39/91/61 34/37/61
f 29/39/62 28/41/62 38/44/62
f 18/64/63 7/59/63 50/73/63
f 3/40/64 52/85/64 23/1/64
f 54/82/65 5/55/65 31/21/65
f 46/17/66 11/19/66 42/22/66
f 1/47/67 27/8/67 9/7/67
f 39/91/68 26/104/68 34/37/68
f 18/64/69 50/73/69 4/77/69
f 27/8/70 46/17/70 43/9/70
f 20/34/71 19/31/71 15/35/71
f 19/31/72 16/3/72 6/2/72
f 43/9/73 46/17/73 42/22/73
f 3/40/74 23/1/74 28/41/74
f 14/11/75 33/12/75 36/30/75
f 34/98/76 26/107/76 35/100/76
f 53/78/77 32/88/77 37/45/77
f 40/86/78 35/100/78 52/85/78
f 42/22/79 11/19/79 48/50/79
f 7/59/80 44/60/80 17/70/80
f 26/107/81 6/2/81 35/100/81
f 5/55/82 25/14/82 41/15/82
f 19/31/83 6/2/83 48/50/83
f 42/22/84 26/104/84 39/91/84
f 24/75/85 9/7/85 13/54/85
f 31/21/86 39/91/86 22/26/86
f 5/55/87 41/15/87 31/21/87
f 42/22/88 48/50/88 26/104/88
f 54/82/89 31/21/89 49/25/89
f 32/88/90 5/55/90 37/45/90
f 9/7/91 25/14/91 5/55/91
f 35/100/92 6/2/92 45/5/92
f 11/19/93 8/18/93 48/50/93
f 35/100/94 45/5/94 52/85/94
f 24/75/95 47/33/95 1/47/95
f 18/64/96 21/63/96 7/59/96
f 26/104/97 48/50/97 6/114/97
f 36/30/98 19/31/98 20/34/98
f 29/39/99 49/57/99 10/97/99
f 10/97/100 3/40/100 29/39/100
f 38/44/101 28/41/101 12/52/101
f 38/44/102 53/78/102 37/45/102
f 50/73/103 53/78/103 4/77/103
f 50/73/104 13/54/104 53/78/104
f 38/44/105 12/52/105 21/63/105

