# WaveFront *.obj file (generated by CINEMA 4D)

v 88.94080352783203 127.70510101318359 199.03080749511719
v 225.59132385253906 13.00951385498047 -238.39320373535156
v 246.39695739746094 -382.88070678710938 306.96926879882812
v 107.56964111328125 -524.3277587890625 -63.89130020141602
v -123.51127624511719 -401.84381103515625 -250.35563659667969
v -152.67488098144531 138.611083984375 -149.34773254394531
v -83.94647216796875 -421.11514282226562 -3.26906824111938
v 217.2474365234375 -35.84524536132812 -44.35042572021484
v -285.72378540039062 -430.95770263671875 285.06173706054688
v -239.10078430175781 -393.84552001953125 -254.32586669921875
v -217.21182250976562 -186.94534301757812 -296.10977172851562
v 187.67536926269531 106.01137542724609 175.55197143554688
v 101.16782379150391 326.80593872070312 -161.20439147949219
v -298.39697265625 86.43074798583984 -77.41020965576172
v -29.74691581726074 338.97531127929688 -141.70988464355469
v -34.70705413818359 456.43603515625 -27.76298522949219
v 147.41395568847656 253.24861145019531 31.68564033508301
v 260.740478515625 -239.23263549804688 -270.63253784179688
v -98.35615539550781 -212.99848937988281 -297.71697998046875
v -216.5894775390625 -458.310302734375 155.01783752441406
v -233.3853759765625 -220.21304321289062 -53.03065490722656
v 19.81450462341309 153.8104248046875 -200.094482421875
v 40.5103759765625 405.50909423828125 73.76991271972656
v 112.47950744628906 -391.36273193359375 267.681396484375
v -17.48080062866211 -449.68695068359375 -275.963134765625
v 256.24606323242188 -190.41969299316406 245.3046875
v -86.10847473144531 -431.98092651367188 283.1563720703125
v 309.21435546875 -233.77687072753906 58.44716262817383
v 11.79639911651611 -461.73526000976562 135.72999572753906
v -307.8531494140625 -466.89120483398438 93.52645111083984
v 221.28697204589844 48.2840576171875 -114.03713226318359
v -93.5802001953125 -113.93141937255859 276.15298461914062
v -159.70660400390625 -507.5870361328125 -87.48165130615234
v 42.82534408569336 407.312255859375 -13.57566928863525
v 136.70622253417969 -423.93191528320312 4.24678421020508
v 280.21450805664062 -468.96597290039062 109.68259429931641
v -141.13357543945312 269.51596069335938 -48.16892623901367
v 27.26251220703125 -48.6902961730957 232.88667297363281
v 17.29991340637207 -481.67822265625 -182.12939453125
v -251.52937316894531 18.41422080993652 -206.68904113769531
v 103.72539520263672 -447.39059448242188 -333.89837646484375
v -316.3575439453125 -179.00120544433594 63.74473190307617
v -46.45021057128906 453.86190795898438 76.60082244873047
v 246.74678039550781 -418.47589111328125 -60.08668899536133
v -150.400634765625 190.71376037597656 109.93327331542969
v 302.11538696289062 -170.43162536621094 -91.52656555175781
v -260.86264038085938 -87.09311676025391 201.7906494140625
v -277.65643310546875 -397.43301391601562 -82.48707580566406
v 250.17173767089844 88.363525390625 76.92893218994141
v -213.63519287109375 -12.9793062210083 58.92935180664062
v 252.82353210449219 -405.04019165039062 -233.94049072265625
v 124.08279418945312 -141.46688842773438 -237.00595092773438
v 121.05825805664062 74.86039733886719 -254.2471923828125
v -64.25920867919922 92.02256011962891 280.51199340820312
# 54 vertices

vn -0.95745378732681 0.27674579620361 0.08181664347649
vn 0 0 0
vn 0.01632191985846 -0.24527330696583 -0.96931654214859
vn -0.31137999892235 -0.1919369995594 -0.93070012331009
vn 0.26956686377525 0.4344907104969 0.85939019918442
vn -0.82588052749634 -0.08210396766663 -0.55783540010452
vn -0.56188988685608 0.06867970526218 0.82435601949692
vn 0.58430272340775 -0.20184300839901 -0.7860341668129
vn -0.00315757817589 -0.98063480854034 0.1958197504282
vn -0.0553411282599 -0.19202357530594 -0.9798287153244
vn 0.04055081307888 0.24475564062595 -0.96873646974564
vn 0.29766440391541 0.43505492806435 0.84977823495865
vn 0.26295086741447 0.0011743248906 -0.96480852365494
vn -0.60717523097992 0.41314074397087 0.67871415615082
vn -0.01771809346974 0.30296263098717 -0.95283770561218
vn -0.97429418563843 0.05917736515403 -0.21736796200275
vn 0.28416419029236 -0.07222413271666 -0.95605146884918
vn -0.24110706150532 0.31940153241158 -0.91643333435059
vn -0.22528545558453 0.25904026627541 0.93922555446625
vn -0.71471470594406 0.45543277263641 -0.53081434965134
vn -0.16839057207108 0.10184697061777 -0.98044472932816
vn -0.0677545145154 -0.99705165624619 -0.03601768985391
vn 0.01048089936376 0.23463089764118 0.97202801704407
vn -0.41605949401855 0.29961067438126 -0.85856157541275
vn -0.18350948393345 -0.80536884069443 -0.56365346908569
vn -0.73090690374374 0.36201146245003 0.57855230569839
vn -0.39205291867256 -0.15521025657654 -0.9067547917366
vn 0.97629970312119 -0.21571797132492 0.01745379529893
vn 0.10448325425386 -0.07756134867668 -0.99149757623672
vn -0.83029013872147 -0.21684873104095 -0.51341497898102
vn 0.0028340506833 -0.97827935218811 0.20727162063122
vn 0.7591467499733 0.04781221970916 0.64916115999222
vn 0.87921792268753 0.46546050906181 -0.10159891843796
vn 0.80540156364441 -0.47466987371445 0.3549884557724
vn 0.21376568078995 -0.92028218507767 0.3276963531971
vn 0.3391729593277 0.34934106469154 -0.87345433235168
vn -0.72135484218597 0.4622275531292 -0.51574498414993
vn 0.15846057236195 -0.982481777668 -0.09808062762022
vn -0.98815602064133 -0.12882423400879 -0.08337894082069
vn -0.28297981619835 0.02697802521288 0.95874637365341
vn -0.29303422570229 0.21529351174831 -0.93154692649841
vn -0.03620769828558 -0.96566390991211 -0.25725895166397
vn 0.89084321260452 0.33515301346779 -0.30670964717865
vn 0.00447892583907 -0.99702912569046 -0.07689545303583
vn 0.13210345804691 0.29631015658379 0.94591170549393
vn 0.81238055229187 0.34835311770439 0.46764078736305
vn 0.42726409435272 -0.89167541265488 0.1495336741209
vn 0.4526295363903 0.50143533945084 -0.73735272884369
vn -0.27542468905449 0.58897620439529 -0.75976854562759
vn 0.75547820329666 0.29304319620132 0.58598494529724
vn 0.68394327163696 -0.53506410121918 0.49591132998466
vn 0.76504904031754 0.50968593358994 0.39359900355339
vn 0.48644137382507 0.87038373947144 0.07620300352573
vn -0.11652464419603 -0.95245015621185 -0.28153285384178
vn 0.92759418487549 0.32063832879066 0.19172909855843
vn 0.76972889900208 0.32970881462097 -0.54663473367691
vn 0.9858540892601 0.0032403129153 0.16757455468178
vn -0.61728239059448 0.40155264735222 0.67654854059219
vn 0.75632452964783 0.21594995260239 -0.61752635240555
vn 0.95350152254105 0.16378466784954 0.25300082564354
vn 0.9617862701416 -0.23293136060238 -0.14391042292118
vn -0.35321134328842 -0.93187868595123 0.08272784948349
vn 0.37059831619263 -0.07235898822546 0.92597031593323
vn 0.9647935628891 0.17751044034958 -0.19407062232494
vn 0.99032932519913 0.1386446505785 -0.00504919653758
vn -0.67815732955933 0.43673834204674 0.59106880426407
vn -0.92986923456192 0.355179220438 -0.09586952626705
vn -0.96542370319366 0.25216108560562 -0.06611976772547
vn -0.59174233675003 -0.60971027612686 -0.52734661102295
vn -0.47622317075729 -0.87807565927506 0.04684628173709
vn 0.27999669313431 0.2807868719101 0.91801995038986
vn -0.31522265076637 0.40856522321701 0.85656821727753
vn 0.95602822303772 -0.16995075345039 -0.23901212215424
vn -0.16285149753094 0.37089705467224 -0.91428375244141
vn -0.51966047286987 0.55069625377655 -0.65321254730225
vn -0.05656541511416 -0.91859567165375 0.39112955331802
vn -0.40475812554359 0.01062535773963 0.91436207294464
vn 0.30030676722527 -0.95281577110291 -0.04424907639623
vn -0.44862964749336 -0.89241576194763 0.0482237637043
vn 0.05222637206316 0.17059105634689 0.9839568734169
vn 0.8323050737381 0.48752588033676 -0.26379299163818
vn -0.10683023184538 -0.95858108997345 -0.26402580738068
vn -0.93510091304779 0.32542455196381 -0.14030374586582
vn -0.85951071977615 0.11180994659662 0.49873828887939
vn -0.86265194416046 0.4710558950901 0.18422259390354
vn 0.53081446886063 0.84690052270889 0.03155184909701
vn -0.9685218334198 0.24703654646873 -0.03063242509961
vn -0.43537378311157 -0.88902431726456 -0.14172305166721
vn 0.82776242494583 0.54840552806854 0.11857816576958
vn 0.88297611474991 0.18654724955559 -0.43075901269913
vn 0.85933798551559 0.48442199826241 0.16393148899078
vn -0.73799872398376 0.3247731924057 0.59150677919388
vn 0.37063837051392 -0.79399907588959 0.48186376690865
vn 0.37287560105324 -0.79410487413406 0.47995963692665
vn -0.64133667945862 -0.66975277662277 -0.37432396411896
vn -0.83646732568741 -0.41553655266762 -0.35728386044502
vn 0.8222935795784 0.568075299263 0.03352107852697
vn 0.84799414873123 0.12588506937027 0.51483869552612
vn 0.2549219429493 0.16022229194641 0.95359510183334
vn -0.23969779908657 0.32106402516365 -0.91622203588486
vn -0.94812202453613 -0.00840959139168 -0.31779530644417
vn -0.72109043598175 0.46649026870728 -0.51226496696472
vn 0.07285540550947 0.02366664633155 0.99706166982651
vn 0.97204208374023 0.00553375016898 0.23474138975143
vn 0.18361113965511 -0.87158244848251 -0.45456683635712
# 105 normals

vt -0.56817597150803 0.43510353565216 0
vt -0.25200316309929 1.453568816185 0
vt -0.20566788315773 1.84757971763611 0
vt 0 1 0
vt -0.11755637824535 -1.5092191696167 0
vt -0.69550395011902 -1.46922731399536 0
vt 0.0082192234695 -0.56499242782593 0
vt 0.41259598731995 -1.74843454360962 0
vt 0.94470399618149 1.13852548599243 0
vt 0.70255190134048 2.52754545211792 0
vt 0.26774895191193 2.76930952072144 0
vt -1.03926575183868 -1.83445596694946 0
vt -1.08178770542145 -0.39500594139099 0
vt -0.66692686080933 -0.60106515884399 0
vt -0.5829473733902 -1.79155158996582 0
vt 1.76411771774292 -1.52520084381104 0
vt 1.01862692832947 -1.73695278167725 0
vt 1.80370235443115 -0.69616317749023 0
vt -0.92861890792847 -1.65478849411011 0
vt 0.55898201465607 -1.80867624282837 0
vt 0.06945762783289 -1.65990447998047 0
vt -0.58605909347534 -0.43472671508789 0
vt 0.59907251596451 1.26905202865601 0
vt 1.43837690353394 1.03005683422089 0
vt 1.12041401863098 -0.20733428001404 0
vt -0.99198484420776 0.93215376138687 0
vt -0.88828217983246 -1.48716497421265 0
vt 1.10529124736786 0.87430202960968 0
vt 1.00583910942078 2.13402962684631 0
vt 0.63631254434586 0.25654852390289 0
vt 0.71412670612335 2.53656125068665 0
vt 1.62795662879944 0.56504756212234 0
vt -0.80431318283081 0.06453442573547 0
vt -0.29853302240372 -2.03793525695801 0
vt 0.58649957180023 -1.90839099884033 0
vt 0.17870396375656 0.96011281013489 0
vt -0.26337441802025 1.19305539131165 0
vt 2.01057696342468 -0.3521580696106 0
vt 1.7337338924408 -1.59237957000732 0
vt 2.04607176780701 -0.66888427734375 0
vt 1.90107250213623 -1.84482955932617 0
vt 1.60643482208252 0.7414203286171 0
vt 1.03784823417664 -2.12163877487183 0
vt 1.18353116512299 -1.61965942382812 0
vt 1.06239748001099 -1.4568133354187 0
vt 0.35126543045044 2.19487643241882 0
vt 0.08026763796806 -1.60557556152344 0
vt -0.75764685869217 0.59207111597061 0
vt 1.73198473453522 -1.41440343856812 0
vt 0.3264647424221 2.78218007087708 0
vt 1.78123033046722 -0.45209836959839 0
vt 1.58623719215393 0.32077383995056 0
vt 1.75085866451263 0.94181764125824 0
vt 1.2370697259903 1.76624298095703 0
vt 0.03209899738431 -0.06965708732605 0
# 55 texture coordinates

o icebergs_2
usemtl default
f 50/1/1 45/2/1 37/3/1
f 5/5/3 10/6/3 19/7/3
f 5/5/4 19/7/4 25/8/4
f 1/9/5 23/10/5 43/11/5
f 30/12/6 42/13/6 21/14/6
f 20/15/7 42/13/7 30/12/7
f 51/16/8 41/17/8 18/18/8
f 9/19/9 29/20/9 27/21/9
f 10/6/10 11/22/10 19/7/10
f 11/22/11 22/23/11 19/7/11
f 12/24/12 23/10/12 1/9/12
f 25/8/13 19/7/13 52/25/13
f 50/1/14 37/3/14 14/26/14
f 41/17/15 52/25/15 18/18/15
f 48/27/16 11/22/16 10/6/16
f 19/7/17 53/28/17 52/25/17
f 22/23/18 13/29/18 53/28/18
f 38/30/19 1/9/19 43/11/19
f 22/23/20 34/31/20 13/29/20
f 52/25/21 2/32/21 18/18/21
f 48/27/22 10/6/22 5/5/22
f 27/21/23 47/33/23 9/19/23
f 25/8/24 52/25/24 41/17/24
f 33/34/25 5/5/25 39/35/25
f 54/36/26 43/11/26 45/2/26
f 21/14/27 14/26/27 6/37/27
f 51/16/28 46/38/28 44/39/28
f 52/25/29 53/28/29 2/32/29
f 42/13/30 14/26/30 21/14/30
f 9/19/31 20/15/31 29/20/31
f 28/40/32 12/24/32 36/41/32
f 2/32/33 34/31/33 31/42/33
f 4/43/34 51/16/34 35/44/34
f 27/21/35 29/20/35 24/45/35
f 53/28/36 13/29/36 2/32/36
f 6/37/37 37/3/37 15/46/37
f 30/12/38 7/47/38 20/15/38
f 21/14/39 40/48/39 11/22/39
f 3/49/40 38/30/40 24/45/40
f 6/37/41 15/46/41 22/23/41
f 20/15/42 7/47/42 29/20/42
f 15/46/43 16/50/43 22/23/43
f 35/44/44 51/16/44 44/39/44
f 26/51/45 38/30/45 3/49/45
f 31/42/46 8/52/46 46/38/46
f 29/20/47 35/44/47 24/45/47
f 22/23/48 16/50/48 34/31/48
f 40/48/49 6/37/49 22/23/49
f 38/30/50 43/11/50 54/36/50
f 29/20/51 4/43/51 35/44/51
f 49/53/52 23/10/52 12/24/52
f 43/11/53 23/10/53 16/50/53
f 39/35/54 25/8/54 41/17/54
f 2/32/55 13/29/55 34/31/55
f 8/52/56 17/54/56 49/53/56
f 3/49/57 36/41/57 26/51/57
f 42/13/58 50/1/58 14/26/58
f 51/16/59 31/42/59 46/38/59
f 31/42/60 17/54/60 8/52/60
f 44/39/61 46/38/61 28/40/61
f 24/45/62 35/44/62 36/41/62
f 38/30/63 54/36/63 32/55/63
f 36/41/64 12/24/64 26/51/64
f 18/18/65 2/32/65 31/42/65
f 9/19/66 50/1/66 42/13/66
f 45/2/67 43/11/67 16/50/67
f 30/12/68 21/14/68 48/27/68
f 48/27/69 5/5/69 33/34/69
f 29/20/70 39/35/70 4/43/70
f 26/51/71 12/24/71 1/9/71
f 32/55/72 45/2/72 47/33/72
f 44/39/73 28/40/73 36/41/73
f 40/48/74 22/23/74 11/22/74
f 14/26/75 37/3/75 6/37/75
f 24/45/76 36/41/76 3/49/76
f 27/21/77 32/55/77 47/33/77
f 39/35/78 41/17/78 51/16/78
f 7/47/79 39/35/79 29/20/79
f 26/51/80 1/9/80 38/30/80
f 31/42/81 34/31/81 17/54/81
f 36/41/82 35/44/82 44/39/82
f 47/33/83 45/2/83 50/1/83
f 32/55/84 54/36/84 45/2/84
f 45/2/85 16/50/85 37/3/85
f 16/50/86 23/10/86 34/31/86
f 48/27/87 21/14/87 11/22/87
f 5/5/88 25/8/88 39/35/88
f 17/54/89 23/10/89 49/53/89
f 8/52/90 49/53/90 28/40/90
f 46/38/91 8/52/91 28/40/91
f 21/14/92 6/37/92 40/48/92
f 30/12/93 33/34/93 7/47/93
f 33/34/94 39/35/94 7/47/94
f 30/12/95 48/27/95 33/34/95
f 9/19/96 42/13/96 20/15/96
f 17/54/97 34/31/97 23/10/97
f 28/40/98 49/53/98 12/24/98
f 24/45/99 38/30/99 32/55/99
f 19/7/100 22/23/100 53/28/100
f 9/19/101 47/33/101 50/1/101
f 37/3/102 16/50/102 15/46/102
f 27/21/103 24/45/103 32/55/103
f 18/18/104 31/42/104 51/16/104
f 4/43/105 39/35/105 51/16/105

