<?xml version="1.0" encoding="utf-8"?>
<!-- Generator: Adobe Illustrator 18.0.0, SVG Export Plug-In . SVG Version: 6.00 Build 0)  -->
<!DOCTYPE svg PUBLIC "-//W3C//DTD SVG 1.1//EN" "http://www.w3.org/Graphics/SVG/1.1/DTD/svg11.dtd">
<svg version="1.1" id="Layer_1" xmlns="http://www.w3.org/2000/svg" xmlns:xlink="http://www.w3.org/1999/xlink" x="0px" y="0px"
	 viewBox="14 4 72 72" enable-background="new 14 4 72 72" xml:space="preserve">
<path d="M19.2,4C16.4,4,14,6.4,14,9.2v23.9c1.3-1,2.9-1.6,4.5-1.7V14.7h32v16.7H55V9.2C55,6.4,52.6,4,49.8,4H19.2L19.2,4z M28.5,8.3
	h12v2.8h-12V8.3z"/>
<path d="M86,40.2c0-2.9-2.4-5.2-5.2-5.2H19.2c-2.9,0-5.2,2.4-5.2,5.2v30.5c0,2.9,2.4,5.2,5.2,5.2h61.5c2.9,0,5.2-2.4,5.2-5.2V40.2
	L86,40.2z M81.7,49.5v12h-2.8v-12H81.7L81.7,49.5z M75.3,39.5v32H26v-32H75.3L75.3,39.5z M22.6,55.5c0,1.4-1.2,2.6-2.6,2.6
	c-1.4,0-2.6-1.2-2.6-2.6s1.2-2.6,2.6-2.6C21.4,52.9,22.6,54.1,22.6,55.5z"/>
<path d="M65,12.5l-0.6,2.3c-1.4-0.4-2.9-0.6-4.4-0.6v-2.4C61.7,11.8,63.3,12.1,65,12.5L65,12.5z"/>
<path d="M78.1,29.6l-2.4,0.1c0-1.6-0.3-2.9-0.7-4.4l2.3-0.7C77.8,26.2,78.1,28,78.1,29.6L78.1,29.6z"/>
<path d="M76.4,22.2l-2.2,1c-0.7-1.3-1.5-2.6-2.4-3.7l1.8-1.6c1.2,1.3,2.1,2.5,2.9,4.1L76.4,22.2L76.4,22.2z"/>
<path d="M71.7,16.1L70.2,18c-1.1-1-2.4-1.7-3.8-2.4l1-2.2C69,14.2,70.3,15,71.7,16.1z"/>
</svg>
