<?xml version="1.0" encoding="utf-8"?>
<!-- Generator: Adobe Illustrator 18.0.0, SVG Export Plug-In . SVG Version: 6.00 Build 0)  -->
<!DOCTYPE svg PUBLIC "-//W3C//DTD SVG 1.1//EN" "http://www.w3.org/Graphics/SVG/1.1/DTD/svg11.dtd">
<svg version="1.1" id="Layer_1" xmlns="http://www.w3.org/2000/svg" xmlns:xlink="http://www.w3.org/1999/xlink" x="0px" y="0px"
	 viewBox="0 0 200 200" enable-background="new 0 0 200 200" xml:space="preserve">
<path fill="none" stroke="#000000" stroke-miterlimit="10" d="M16.5,95.5c4.2,0,4.2,9,8.3,9c4.2,0,4.2-9,8.3-9c4.2,0,4.2,9,8.3,9
	c4.2,0,4.2-8.4,8.3-8.4c4.2,0,4.2,7.3,8.3,7.3c4.2,0,4.2-6.1,8.3-6.1c4.2,0,4.2,5,8.3,5c4.2,0,4.2-3.9,8.3-3.9
	c4.2,0,4.2,2.8,8.3,2.8c4.2,0,4.2-1.7,8.3-1.7c4.2,0,4.2,1.1,8.3,1.1c4.2,0,4.2-0.4,8.3-0.4c4.2,0,3.9,0,8,0c4.2,0,3,0,7.1,0
	c4.2,0,5.2,0,9.4,0c4.2,0,58.2,0,62.4,0"/>
<path fill="none" stroke="#000000" stroke-miterlimit="10" d="M0,95.5c4.2,0,4.2,9,8.3,9c4.2,0,4.2-9,8.3-9"/>
</svg>
