<?xml version="1.0" encoding="utf-8"?>
<!-- Generator: Adobe Illustrator 18.0.0, SVG Export Plug-In . SVG Version: 6.00 Build 0)  -->
<!DOCTYPE svg PUBLIC "-//W3C//DTD SVG 1.1//EN" "http://www.w3.org/Graphics/SVG/1.1/DTD/svg11.dtd">
<svg version="1.1" id="Layer_1" xmlns="http://www.w3.org/2000/svg" xmlns:xlink="http://www.w3.org/1999/xlink" x="0px" y="0px"
	 viewBox="30.6 44.1 550.8 550.8" enable-background="new 30.6 44.1 550.8 550.8" xml:space="preserve">
<path fill="#FFFFFF" d="M550.8,44.1H306c-16.9,0-30.6,13.7-30.6,30.6s13.7,30.6,30.6,30.6h170.9L232.3,349.9
	c-12,11.9-12,31.3,0,43.3c6,6,13.8,9,21.6,9c7.8,0,15.7-3,21.6-9l244.6-244.6v170.9c0,16.9,13.7,30.6,30.6,30.6s30.6-13.7,30.6-30.6
	V74.7C581.4,57.8,567.7,44.1,550.8,44.1z"/>
<g>
	<path fill="#FFFFFF" d="M388.8,193.4L353.2,229c16.8,11.8,31.5,26.4,43.3,43.3l35.6-35.6C419.7,220.4,405.1,205.8,388.8,193.4z"/>
	<path fill="#FFFFFF" d="M423.2,332.2c2.9,12.7,4.6,25.8,4.6,39.4c0,95.8-77.9,173.7-173.7,173.7S80.2,467.3,80.2,371.5
		S158.2,197.8,254,197.8c13.5,0,26.7,1.6,39.4,4.6l39.7-39.7c-24.6-9.3-51.2-14.5-79.1-14.5c-123.4,0-223.4,100-223.4,223.4
		c0,123.4,100,223.4,223.4,223.4c123.4,0,223.4-100,223.4-223.4c0-27.9-5.1-54.5-14.5-79.1L423.2,332.2z"/>
</g>
</svg>
