# WaveFront *.obj file (generated by CINEMA 4D)

v -114.85838317871094 -499.17721557617188 -71.40731811523438
v -235.52235412597656 -91.41379547119141 -274.30734252929688
v 142.06828308105469 268.55596923828125 150.7183837890625
v -241.52531433105469 -105.08936309814453 270.10531616210938
v 314.91360473632812 -226.44850158691406 159.43109130859375
v 227.89100646972656 -450.1241455078125 -195.39643859863281
v 275.5357666015625 -458.41940307617188 -58.43808364868164
v 93.61343383789062 228.51361083984375 -175.33106994628906
v -256.8116455078125 -436.86685180664062 -254.87799072265625
v -209.80027770996094 152.67530822753906 -152.64523315429688
v -220.77919006347656 351.14971923828125 -188.52210998535156
v -307.250732421875 -429.89437866210938 72.40934753417969
v -204.26493835449219 -420.85202026367188 265.21377563476562
v -260.6119384765625 -420.61911010742188 -67.08741760253906
v -69.12661743164062 319.94540405273438 -240.28114318847656
v 323.97998046875 210.13760375976562 132.24244689941406
v 43.95898818969727 95.80533599853516 255.61929321289062
v -122.20768737792969 -56.28970336914062 -278.44622802734375
v 317.85165405273438 -154.58277893066406 -93.05728912353516
v 192.25869750976562 184.17849731445312 46.43546295166016
v -116.706298828125 419.92791748046875 77.05728149414062
v 86.33140563964844 436.44039916992188 91.9544677734375
v -41.7025146484375 493.5584716796875 147.82913208007812
v 119.84534454345703 -464.18722534179688 316.93942260742188
v 230.18196105957031 -14.06859493255615 152.65760803222656
v -31.72603797912598 -360.89761352539062 -300.54144287109375
v 195.65475463867188 315.81329345703125 -46.08957672119141
v -7.02126455307007 -49.40071868896484 -233.60758972167969
v 321.47457885742188 -16.44562149047852 -171.92449951171875
v -264.0880126953125 -108.90750885009766 -130.64059448242188
v -48.75169372558594 155.81402587890625 -200.699462890625
v -19.7575569152832 471.39700317382812 -53.57617568969727
v 71.72245025634766 -458.18087768554688 -274.29940795898438
v -250.62547302246094 135.94851684570312 238.77033996582031
v -64.19410705566406 165.43949890136719 263.25088500976562
v 120.74590301513672 -205.34237670898438 288.0323486328125
v 35.32925796508789 124.50587463378906 -311.40402221679688
v 162.68313598632812 -31.73080253601074 -239.57440185546875
v 74.9150390625 -455.44833374023438 50.50128173828125
v 93.57682800292969 478.04977416992188 -62.87351608276367
v 160.46467590332031 -87.69863891601562 373.93856811523438
v -135.76795959472656 -22.94951057434082 251.58528137207031
v 213.21246337890625 344.66073608398438 -221.70451354980469
v -293.64962768554688 24.11186981201172 12.68867588043213
v 288.90859985351562 -383.62820434570312 281.57110595703125
v -53.44791793823242 -267.6318359375 332.67669677734375
v 241.34196472167969 -102.72394561767578 -128.37178039550781
v -243.12886047363281 161.81198120117188 61.59077072143555
v 38.85499954223633 -370.90750122070312 255.33857727050781
v 276.02487182617188 -198.52203369140625 -325.94198608398438
v -80.94754791259766 -420.60641479492188 48.03246307373047
v 226.716064453125 13.17698669433594 248.69895935058594
v -246.00233459472656 -226.65951538085938 118.44469451904297
v -92.19536590576172 467.71139526367188 -31.85077285766602
# 54 vertices

vn 0.01068219076842 -0.41049221158028 -0.91180151700974
vn 0 0 0
vn 0.81989520788193 0.31179356575012 -0.48016309738159
vn -0.9517434835434 0.24494275450706 0.18489821255207
vn -0.60054713487625 0.52369385957718 -0.60422497987747
vn 0.82589501142502 0.53732007741928 0.17083474993706
vn 0.83904910087585 0.11035989969969 0.53274512290955
vn 0.51540786027908 0.43047422170639 0.74097681045532
vn 0.76508092880249 -0.51639121770859 0.3846962749958
vn -0.06220206618309 0.29506120085716 0.95345151424408
vn -0.74976199865341 0.65128040313721 0.11700767278671
vn -0.3769858777523 0.00356563972309 0.92621213197708
vn -0.05657310038805 0.21403308212757 -0.97518682479858
vn -0.03552717715502 0.9655390381813 0.25782203674316
vn -0.02985836938024 -0.99916923046112 -0.02773659303784
vn 0.85582262277603 0.39924895763397 0.32888892292976
vn -0.99784684181213 -0.04399624094367 -0.04864198714495
vn -0.96767920255661 0.18655326962471 -0.16969050467014
vn -0.15298946201801 0.38638380169868 -0.9095613360405
vn 0.13937968015671 -0.51073032617569 0.84836775064468
vn 0.09160705655813 -0.84367352724075 0.5289831161499
vn -0.12820841372013 -0.01269719284028 0.99166595935822
vn -0.26307284832001 0.45244178175926 -0.85210859775543
vn 0.97480070590973 -0.07806099951267 0.20897391438484
vn -0.89837580919266 0.43845784664154 0.02599207311869
vn 0.56129956245422 -0.30488181114197 -0.76940876245499
vn 0.15345101058483 0.10914543271065 0.98211002349854
vn 0.07122940570116 0.13123202323914 0.98878943920136
vn -0.80786168575287 -0.14449001848698 0.57138609886169
vn -0.87387442588806 0.15931884944439 0.45930495858192
vn -0.94413197040558 -0.07591534405947 -0.32070499658585
vn 0.01692928932607 0.9749361872673 0.22183953225613
vn -0.80372923612595 -0.06866271793842 -0.59102004766464
vn -0.98524302244186 -0.11817790567875 0.12381500005722
vn -0.7213294506073 0.66360795497894 -0.19826327264309
vn 0.20266805589199 0.80667650699615 -0.55515640974045
vn -0.35135033726692 -0.18532527983189 -0.91771864891052
vn -0.79467219114304 0.53649258613586 0.28402784466743
vn 0.26064723730087 0.30441755056381 0.91618394851685
vn -0.35901892185211 -0.05679627135396 0.93160057067871
vn -0.05100418999791 0.78215980529785 -0.62098681926727
vn 0.95528489351273 0.04823477566242 -0.29172629117966
vn -0.89781880378723 0.44027534127235 -0.00889286585152
vn -0.18814551830292 0.8556370139122 -0.4821685552597
vn 0.31622987985611 0.43837985396385 -0.84132146835327
vn 0.95358949899673 0.29695802927017 -0.04983012378216
vn -0.09881869703531 0.42791014909744 -0.89840286970139
vn -0.4787175655365 -0.66399925947189 -0.57439923286438
vn -0.04004403203726 -0.99811428785324 -0.04652309045196
vn 0.34290394186974 0.21631802618504 -0.91412436962128
vn -0.90382879972458 0.39782375097275 -0.15757444500923
vn -0.01943066343665 -0.05495002865791 -0.99830001592636
vn 0.54518234729767 -0.76305210590363 0.34717094898224
vn 0.04353271797299 -0.99877345561981 0.02358875796199
vn -0.99972224235535 0.01048401650041 0.0211078748107
vn 0.06951630115509 -0.0013602519175 0.99757987260818
vn 0.45307487249374 -0.87423038482666 0.17448306083679
vn -0.9807254076004 0.04981303960085 -0.18893480300903
vn 0.49452912807465 0.14615365862846 -0.85678470134735
vn 0.31930738687515 0.64835822582245 0.69113993644714
vn -0.98053777217865 -0.19519536197186 -0.02108094468713
vn 0.61532211303711 0.48424795269966 -0.62199884653091
vn 0.37414625287056 0.31677603721619 0.87158906459808
vn -0.4331359565258 0.16454681754112 -0.88618147373199
vn 0.27089682221413 0.58136695623398 -0.76722055673599
vn 0.20437330007553 -0.97212094068527 0.11494555324316
vn 0.81270986795425 0.23950003087521 -0.53117084503174
vn 0.21980367600918 0.41210478544235 0.88422620296478
vn 0.9219588637352 -0.08536042273045 0.37776380777359
vn 0.26515737175941 0.02193566597998 -0.9639555811882
vn 0.92725050449371 0.36767888069153 -0.07084306329489
vn -0.40113517642021 -0.71259897947311 -0.57558083534241
vn -0.42927205562592 -0.43361079692841 0.7922797203064
vn 0.85382801294327 0.22391168773174 0.46993753314018
vn 0.98627382516861 -0.16509936749935 -0.00247433059849
vn -0.60124671459198 0.32823774218559 -0.7285344004631
vn -0.17482958734035 0.33736801147461 0.92499589920044
vn -0.27168589830399 -0.25736150145531 -0.92733585834503
vn -0.08214098960161 -0.030477354303 0.99615460634232
vn 0.47112339735031 -0.02138128317893 -0.88180810213089
vn 0.68043380975723 -0.29287633299828 0.67173904180527
vn -0.21021504700184 -0.91620862483978 0.34113258123398
vn 0.41514530777931 -0.4803067445755 -0.77263170480728
vn -0.20234973728657 0.0109250433743 -0.97925239801407
vn 0.11445157974958 0.04249265417457 0.99251961708069
vn 0.98772948980331 -0.13622544705868 0.07637453824282
vn -0.46840071678162 -0.85730576515198 -0.21360628306866
vn 0.33452215790749 -0.93827491998672 0.08794973790646
vn -0.78590434789658 -0.60801184177399 0.11258736252785
vn 0.9357026219368 0.18639582395554 0.29952839016914
vn 0.94424843788147 0.27643990516663 0.17881797254086
vn 0.81014031171799 0.41107779741287 0.41795662045479
vn -0.21325354278088 -0.96485370397568 -0.15355867147446
vn 0.91438150405884 0.2167566716671 0.34194001555443
vn -0.90761172771454 0.38902947306633 -0.15778787434101
vn -0.99970811605453 -0.01500834804028 -0.01893243193626
vn 0.82348972558975 0.53705149888992 0.18286690115929
vn -0.79458165168762 0.0651642754674 0.6036502122879
vn 0.928003013134 -0.16718190908432 -0.33295738697052
vn 0.34858307242393 0.17039810121059 -0.92165845632553
vn -0.80938053131104 0.09090183675289 0.58020693063736
vn -0.53024786710739 0.09592160582542 0.84239912033081
vn -0.92529088258743 0.16323336958885 -0.34233272075653
vn 0.31513088941574 0.92288279533386 -0.2213140130043
vn -0.00585776055232 -0.99357235431671 0.11304698139429
# 105 normals

vt 0.46489366889 0.25299644470215 0
vt 0.67664629220963 1.12252938747406 0
vt 1.31341564655304 0.34134602546692 0
vt 0 1 0
vt 1.87767887115479 -1.7920970916748 0
vt 1.65090978145599 0.42965710163116 0
vt 2.07456803321838 -0.63224244117737 0
vt -1.0362536907196 -1.64947175979614 0
vt -0.73001170158386 -0.63329744338989 0
vt -0.82044005393982 -0.04453754425049 0
vt 0.25624153017998 1.27907013893127 0
vt 0.96788412332535 2.89024877548218 0
vt 1.56606233119965 2.22330355644226 0
vt 1.4782737493515 2.07906651496887 0
vt 1.633580327034 0.56588494777679 0
vt 1.30232334136963 0.06150686740875 0
vt 1.21034145355225 1.84277987480164 0
vt 0.93165701627731 2.68220186233521 0
vt 0.29148742556572 2.96779227256775 0
vt 1.88012433052063 -0.49261021614075 0
vt 2.10737299919128 0.41777193546295 0
vt 1.70670986175537 -0.01361966133118 0
vt 0.23276041448116 -0.83815908432007 0
vt -0.178839802742 0.38525247573853 0
vt -0.70762658119202 -0.02544665336609 0
vt -0.08353149145842 2.59963941574097 0
vt 0.03902317211032 2.83855700492859 0
vt 1.10372948646545 -0.52671194076538 0
vt 0.71979492902756 0.9790266752243 0
vt 0.69427502155304 -1.35453748703003 0
vt 0.34136980772018 -1.30448818206787 0
vt 0.40121221542358 2.85698485374451 0
vt 1.09922671318054 -1.82093620300293 0
vt 0.87457519769669 -1.77724170684814 0
vt -0.75312733650208 1.17974257469177 0
vt -0.71564429998398 1.30905985832214 0
vt -0.54900139570236 1.26337647438049 0
vt -0.6776117682457 0.0429310798645 0
vt -0.11103843897581 0.2185515165329 0
vt -0.52132469415665 -1.60425996780396 0
vt -0.07429191470146 -1.99588584899902 0
vt 0.09526225924492 -1.60303211212158 0
vt 0.17902946472168 1.32719755172729 0
vt 1.63945508003235 -1.75062084197998 0
vt 1.4612934589386 1.42089247703552 0
vt 2.11989998817444 1.55068802833557 0
vt 1.94454300403595 -1.41814088821411 0
vt -0.80305969715118 -1.60309553146362 0
vt 0.96806716918945 1.64256799221039 0
vt -0.60389596223831 2.25574851036072 0
vt 0.15436691045761 2.0997269153595 0
vt 0.85861223936081 -1.79090404510498 0
vt -0.78405821323395 -1.68433427810669 0
vt 2.08925819396973 -0.27291393280029 0
vt -0.96824812889099 0.62055933475494 0
# 55 texture coordinates

o icebergs_1
usemtl default
f 28/1/1 37/2/1 38/3/1
f 7/5/3 25/6/3 5/7/3
f 12/8/4 53/9/4 30/10/4
f 31/11/5 40/12/5 37/2/5
f 43/13/6 40/12/6 27/14/6
f 5/7/7 52/15/7 41/16/7
f 3/17/8 22/18/8 23/19/8
f 50/20/9 29/21/9 47/22/9
f 46/23/10 42/24/10 4/25/10
f 21/26/11 23/19/11 54/27/11
f 36/28/12 17/29/12 49/30/12
f 26/31/13 28/1/13 38/3/13
f 32/32/14 22/18/14 40/12/14
f 24/33/15 39/34/15 7/5/15
f 27/14/16 22/18/16 3/17/16
f 34/35/17 48/36/17 4/25/17
f 30/10/18 10/37/18 2/38/18
f 2/38/19 31/11/19 18/39/19
f 49/30/20 46/23/20 13/40/20
f 12/8/21 1/41/21 51/42/21
f 42/24/22 35/43/22 34/35/22
f 2/38/23 10/37/23 31/11/23
f 50/20/24 47/22/24 6/44/24
f 34/35/25 21/26/25 48/36/25
f 20/45/26 16/46/26 25/6/26
f 45/47/27 36/28/27 24/33/27
f 42/24/28 34/35/28 4/25/28
f 41/16/29 17/29/29 36/28/29
f 13/40/30 53/9/30 12/8/30
f 14/48/31 12/8/31 30/10/31
f 54/27/32 22/18/32 32/32/32
f 28/1/33 31/11/33 37/2/33
f 13/40/34 4/25/34 53/9/34
f 37/2/35 8/49/35 43/13/35
f 20/45/36 3/17/36 16/46/36
f 10/37/37 11/50/37 15/51/37
f 34/35/38 23/19/38 21/26/38
f 17/29/39 23/19/39 35/43/39
f 13/40/40 46/23/40 4/25/40
f 11/50/41 32/32/41 15/51/41
f 15/51/42 32/32/42 31/11/42
f 48/36/43 21/26/43 54/27/43
f 11/50/44 54/27/44 32/32/44
f 38/3/45 27/14/45 29/21/45
f 25/6/46 3/17/46 52/15/46
f 31/11/47 32/32/47 40/12/47
f 1/41/48 26/31/48 33/52/48
f 39/34/49 6/44/49 7/5/49
f 18/39/50 31/11/50 28/1/50
f 48/36/51 54/27/51 10/37/51
f 2/38/52 18/39/52 9/53/52
f 1/41/53 33/52/53 51/42/53
f 13/40/54 12/8/54 51/42/54
f 53/9/55 4/25/55 48/36/55
f 49/30/56 17/29/56 35/43/56
f 24/33/57 7/5/57 45/47/57
f 9/53/58 30/10/58 2/38/58
f 6/44/59 47/22/59 19/54/59
f 41/16/60 52/15/60 17/29/60
f 53/9/61 44/55/61 30/10/61
f 47/22/62 20/45/62 19/54/62
f 3/17/63 23/19/63 17/29/63
f 33/52/64 38/3/64 50/20/64
f 50/20/65 38/3/65 29/21/65
f 13/40/66 51/42/66 49/30/66
f 37/2/67 40/12/67 8/49/67
f 52/15/68 3/17/68 17/29/68
f 7/5/69 19/54/69 25/6/69
f 26/31/70 38/3/70 33/52/70
f 5/7/71 25/6/71 52/15/71
f 14/48/72 26/31/72 1/41/72
f 45/47/73 41/16/73 36/28/73
f 45/47/74 5/7/74 41/16/74
f 7/5/75 5/7/75 45/47/75
f 8/49/76 40/12/76 43/13/76
f 35/43/77 23/19/77 34/35/77
f 10/37/78 15/51/78 31/11/78
f 49/30/79 35/43/79 42/24/79
f 37/2/80 43/13/80 38/3/80
f 47/22/81 29/21/81 20/45/81
f 51/42/82 39/34/82 49/30/82
f 33/52/83 50/20/83 6/44/83
f 9/53/84 18/39/84 26/31/84
f 25/6/85 16/46/85 3/17/85
f 38/3/86 43/13/86 27/14/86
f 12/8/87 14/48/87 1/41/87
f 14/48/88 9/53/88 26/31/88
f 49/30/89 39/34/89 24/33/89
f 20/45/90 27/14/90 3/17/90
f 19/54/91 20/45/91 25/6/91
f 46/23/92 49/30/92 42/24/92
f 39/34/93 51/42/93 6/44/93
f 29/21/94 27/14/94 20/45/94
f 44/55/95 48/36/95 10/37/95
f 14/48/96 30/10/96 9/53/96
f 27/14/97 40/12/97 22/18/97
f 10/37/98 54/27/98 11/50/98
f 6/44/99 19/54/99 7/5/99
f 18/39/100 28/1/100 26/31/100
f 53/9/101 48/36/101 44/55/101
f 24/33/102 36/28/102 49/30/102
f 44/55/103 10/37/103 30/10/103
f 54/27/104 23/19/104 22/18/104
f 51/42/105 33/52/105 6/44/105

